<?xml version="1.0" standalone="no"?>
<!DOCTYPE svg PUBLIC "-//W3C//DTD SVG 20010904//EN"
 "http://www.w3.org/TR/2001/REC-SVG-20010904/DTD/svg10.dtd">
<svg version="1.0" xmlns="http://www.w3.org/2000/svg"
 width="437.000000pt" height="394.000000pt" viewBox="0 0 437.000000 394.000000"
 preserveAspectRatio="xMidYMid meet">
<metadata>
Created by potrace 1.16, written by Peter Selinger 2001-2019
</metadata>
<g transform="translate(0.000000,394.000000) scale(0.100000,-0.100000)"
fill="#000000" stroke="none">
<path d="M0 1970 l0 -1970 2185 0 2185 0 0 1970 0 1970 -2185 0 -2185 0 0
-1970z m3112 953 l98 -98 0 -785 0 -785 -97 -97 -98 -98 -785 0 -785 0 -97 97
-98 98 0 785 0 785 97 97 98 98 785 0 785 0 97 -97z"/>
<path d="M1647 2623 c-4 -3 -7 -267 -7 -585 l0 -578 590 0 590 0 -2 583 -3
582 -581 3 c-319 1 -584 -1 -587 -5z"/>
</g>
</svg>
